<?xml version="1.0"?>
<svg xmlns="http://www.w3.org/2000/svg" height="512px" viewBox="-23 0 491 491.90539" width="512px" nighteye="disabled" class=""><g><path d="m20.210938 432.371094-12.867188 14.027344c-.5.546874-.917969 1.164062-1.234375 1.835937l-.953125 2.027344c-1.726562 3.660156-.191406 8.042969 3.429688 9.785156l50.113281 24.144531c3.714843 1.789063 8.121093 1.164063 11.207031-1.582031l1.359375-2.882813c1.457031-3.089843 1.179687-6.730468-.71875-9.5625l-13.417969-20.007812zm0 0" fill="#a4c9ff" data-original="#A4C9FF" class=""/><path d="m63.121094 489.207031c-2.085938 0-4.191406-.464843-6.15625-1.414062l-50.117188-24.140625c-5.582031-2.691406-7.964844-9.464844-5.3125-15.09375l.957032-2.027344c.488281-1.039062 1.128906-1.992188 1.90625-2.835938l12.867187-14.027343c1.1875-1.296875 3.089844-1.664063 4.683594-.898438l36.917969 17.785157c.640624.308593 1.191406.785156 1.585937 1.375l13.417969 20.007812c2.667968 3.980469 3.058594 9.152344 1.015625 13.496094l-1.359375 2.882812c-.230469.488282-.554688.921875-.957032 1.28125-2.667968 2.375-6.039062 3.609375-9.449218 3.609375zm-41.96875-51.945312-10.863282 11.839843c-.226562.25-.414062.53125-.558593.835938l-.957031 2.03125c-.789063 1.675781-.09375 3.683594 1.550781 4.476562l50.113281 24.140626c2.039062.984374 4.417969.769531 6.242188-.515626l.964843-2.046874c.855469-1.8125.691407-3.96875-.421875-5.628907l-12.8125-19.105469zm0 0" fill="#3762cc" data-original="#3762CC" class=""/><path d="m73.304688 261.832031.308593 3.46875v37.285157c0 1.207031-.238281 2.398437-.703125 3.503906l-52.789062 125.546875 38.859375 18.882812 66.257812-123.601562c1.226563-2.289063 1.871094-4.851563 1.871094-7.453125v-57.636719h-53.804687zm0 0" fill="#4671c6" data-original="#4671C6" class="active-path" data-old_color="#4671c6" style="fill:#4671C6"/><path d="m58.976562 454.519531c-.585937 0-1.183593-.128906-1.746093-.402343l-38.859375-18.882813c-1.910156-.925781-2.761719-3.1875-1.9375-5.148437l52.789062-125.542969c.261719-.625.390625-1.28125.390625-1.953125v-37.109375l-.292969-3.292969c-.097656-1.117188.277344-2.226562 1.035157-3.054688.757812-.828124 1.828125-1.300781 2.953125-1.300781h53.800781c2.210937 0 4 1.792969 4 4v57.632813c0 3.253906-.808594 6.484375-2.34375 9.34375l-66.261719 123.601562c-.71875 1.339844-2.097656 2.109375-3.527344 2.109375zm-33.699218-24.824219 31.992187 15.546876 64.445313-120.214844c.910156-1.703125 1.394531-3.625 1.394531-5.5625v-53.632813h-45.496094v36.753907c0 1.75-.34375 3.453124-1.019531 5.058593zm0 0" fill="#3762cc" data-original="#3762CC" class=""/><path d="m59.003906 180.222656-11.179687 81.429688-12.507813 22.488281-5.042968 22.671875 3.902343 5.5 26.683594 5.929688 5.722656-3.933594 4.582031-20.625.414063-26.753906 21.445313-79.148438zm0 0" fill="#f9cfcf" data-original="#F9CFCF"/><path d="m60.859375 322.242188c-.289063 0-.582031-.03125-.867187-.097657l-26.683594-5.929687c-.96875-.214844-1.824219-.78125-2.394532-1.589844l-3.902343-5.5c-.652344-.921875-.886719-2.078125-.640625-3.179688l5.039062-22.675781c.085938-.375.21875-.738281.410156-1.074219l12.140626-21.832031 11.082031-80.6875c.152343-1.105469.761719-2.101562 1.679687-2.738281.917969-.640625 2.058594-.867188 3.148438-.621094l34.023437 7.5625c1.066407.234375 1.988281.898438 2.554688 1.832032.5625.9375.722656 2.058593.4375 3.117187l-21.316407 78.664063-.40625 26.253906c-.003906.269531-.039062.542968-.09375.804687l-4.585937 20.625c-.21875.988281-.804687 1.855469-1.636719 2.425781l-5.722656 3.933594c-.671875.464844-1.464844.707032-2.265625.707032zm-24.3125-13.5 23.480469 5.21875 2.988281-2.054688 4.152344-18.6875.410156-26.347656c.003906-.332032.050781-.664063.136719-.984375l20.351562-75.105469-25.691406-5.714844-10.589844 77.128906c-.066406.492188-.222656.964844-.464844 1.398438l-12.226562 21.980469-4.527344 20.375zm11.277344-47.089844h.019531zm0 0" fill="#3762cc" data-original="#3762CC" class=""/><path d="m103.136719 452.890625-6.546875 21.417969c-.226563.738281-.339844 1.503906-.339844 2.273437v3.710938c0 4.203125 3.324219 7.613281 7.429688 7.613281h64.804687c4.730469 0 9.007813-2.890625 10.867187-7.347656v-3.71875c0-3.992188-2.0625-7.683594-5.421874-9.699219l-23.734376-14.25zm0 0" fill="#a4c9ff" data-original="#A4C9FF" class=""/><path d="m168.484375 491.90625h-64.804687c-6.304688 0-11.429688-5.207031-11.429688-11.613281v-3.710938c0-1.175781.171875-2.335937.515625-3.449219l6.546875-21.414062c.515625-1.683594 2.066406-2.832031 3.824219-2.832031h47.058593c.726563 0 1.4375.199219 2.058594.570312l23.734375 14.25c4.539063 2.726563 7.363281 7.757813 7.363281 13.128907v3.722656c0 .527344-.105468 1.054687-.308593 1.539062-2.484375 5.960938-8.203125 9.808594-14.558594 9.808594zm-62.386719-35.015625-5.683594 18.589844c-.113281.355469-.164062.726562-.164062 1.101562v3.710938c0 1.992187 1.539062 3.613281 3.429688 3.613281h64.804687c2.878906 0 5.507813-1.640625 6.867187-4.230469v-2.835937c0-2.578125-1.332031-4.976563-3.480468-6.269532l-22.785156-13.679687zm0 0" fill="#3762cc" data-original="#3762CC" class=""/><path d="m168.484375 491.90625h-64.804687c-6.304688 0-11.429688-5.207031-11.429688-11.613281v-3.710938c0-1.175781.171875-2.335937.515625-3.449219l6.546875-21.414062c.515625-1.683594 2.066406-2.832031 3.824219-2.832031h47.058593c.726563 0 1.4375.199219 2.058594.570312l23.734375 14.25c4.539063 2.726563 7.363281 7.757813 7.363281 13.128907v3.722656c0 .527344-.105468 1.054687-.308593 1.539062-2.484375 5.960938-8.203125 9.808594-14.558594 9.808594zm-62.386719-35.015625-5.683594 18.589844c-.113281.355469-.164062.726562-.164062 1.101562v3.710938c0 1.992187 1.539062 3.613281 3.429688 3.613281h64.804687c2.878906 0 5.507813-1.640625 6.867187-4.230469v-2.835937c0-2.578125-1.332031-4.976563-3.480468-6.269532l-22.785156-13.679687zm0 0" fill="#3762cc" data-original="#3762CC" class=""/><path d="m140.148438 278.128906 1.066406-9.800781 1.339844-6.496094h-69.648438l-1.070312 3.007813c-4.171876 11.753906-5.042969 24.453125-2.5 36.648437l4.894531 23.511719 25.964843 127.5625 3.015626.328125h42.191406l-.078125-.476563zm0 0" fill="#4671c6" data-original="#4671C6" class="active-path" data-old_color="#4671c6" style="fill:#4671C6"/><path d="m145.402344 456.890625h-42.191406c-.140626 0-.289063-.007813-.433594-.023437l-3.015625-.328126c-1.726563-.191406-3.136719-1.476562-3.484375-3.179687l-25.96875-127.5625-4.886719-23.496094c-2.691406-12.925781-1.777344-26.34375 2.648437-38.800781l1.066407-3.007812c.566406-1.59375 2.074219-2.660157 3.769531-2.660157h69.644531c1.207031 0 2.34375.542969 3.105469 1.472657.757812.929687 1.054688 2.15625.816406 3.332031l-1.300781 6.3125-1.015625 9.335937 5.160156 173.75.035156.21875c.1875 1.160156-.144531 2.335938-.90625 3.230469-.761718.890625-1.871093 1.40625-3.042968 1.40625zm-41.871094-8h37.6875l-5.066406-170.640625c-.007813-.183594 0-.371094.019531-.550781l1.066406-9.800781c.015625-.128907.035157-.25.058594-.375l.347656-1.691407h-61.914062l-.125.347657c-3.933594 11.074218-4.746094 23-2.355469 34.492187l4.894531 23.511719zm0 0" fill="#3762cc" data-original="#3762CC" class=""/><path d="m99.433594 193.207031c-.285156 0-.578125-.03125-.871094-.09375l-45.1875-10.046875c-2.152344-.476562-3.515625-2.613281-3.035156-4.769531l7.75-34.878906c3.246094-14.613281 17.789062-23.855469 32.386718-20.609375 14.609376 3.246094 23.855469 17.773437 20.609376 32.386718l-7.75 34.878907c-.414063 1.863281-2.066407 3.132812-3.902344 3.132812zm-40.417969-17.082031 37.378906 8.308594 6.882813-30.972656c2.289062-10.304688-4.234375-20.554688-14.539063-22.84375-10.300781-2.289063-20.554687 4.230468-22.84375 14.539062zm0 0" fill="#3762cc" data-original="#3762CC" class=""/><path d="m139.730469 135.65625c-4.730469-10.683594-15.75-18.175781-28.597657-18.175781h-21.019531c-13.839843 0-25.0625 10.777343-25.0625 24.074219v122.609374h77.136719l4.90625-72.859374c.054688-.757813.066406-1.515626.101562-2.277344h.03125c2.25-33.71875-7.496093-53.371094-7.496093-53.371094zm0 0" fill="#6bdddd" data-original="#6BDDDD"/><path d="m142.191406 268.164062h-77.140625c-2.207031 0-4-1.792968-4-4v-122.609374c0-15.480469 13.039063-28.074219 29.0625-28.074219h21.019531c14.023438 0 26.644532 8.015625 32.199219 20.433593.632813 1.300782 10.152344 21.398438 7.882813 55.378907-.007813.125-.019532.25-.039063.371093l-.019531.4375c-.019531.488282-.039062.980469-.070312 1.46875l-4.90625 72.859376c-.140626 2.105468-1.882813 3.734374-3.988282 3.734374zm-73.140625-8h69.398438l4.65625-69.125c.027343-.410156.042969-.824218.054687-1.234374l.042969-.980469c.007813-.175781.03125-.351563.058594-.523438 2.023437-31.800781-7.03125-50.6875-7.125-50.875-.023438-.046875-.046875-.101562-.070313-.152343-4.246094-9.59375-14.035156-15.792969-24.9375-15.792969h-21.015625c-11.613281 0-21.0625 9.007812-21.0625 20.078125zm0 0" fill="#3762cc" data-original="#3762CC" class=""/><path d="m111.507812 10.339844c21.246094 0 38.472657 17.226562 38.472657 38.472656v22.582031h1.871093c3.300782 0 5.972657 2.675781 5.972657 5.976563 0 3.296875-2.675781 5.972656-5.972657 5.972656h-2.921874c-3.308594 14.242188-14.484376 25.460938-28.734376 28.75v5.289062c-3.214843-1.085937-6.648437-1.703124-10.230468-1.703124h-19.390625c-1.386719 0-2.734375.140624-4.0625.351562v-12.179688c-8.246094-7.054687-13.476563-17.53125-13.476563-29.230468v-25.808594c-.003906-21.246094 17.222656-38.472656 38.472656-38.472656zm0 0" fill="#f9cfcf" data-original="#F9CFCF"/><path d="m135.910156 71.710938c1.960938 0 3.546875-1.589844 3.546875-3.550782v-5.914062c0-1.957032-1.585937-3.546875-3.546875-3.546875-1.960937 0-3.546875 1.589843-3.546875 3.546875v5.914062c0 1.960938 1.589844 3.550782 3.546875 3.550782zm0 0" fill="#3762cc" data-original="#3762CC" class=""/><path d="m119.140625 72.515625c0 7.523437-6.097656 13.621094-13.621094 13.621094-7.519531 0-13.617187-6.097657-13.617187-13.621094s6.097656-13.621094 13.617187-13.621094c7.523438 0 13.621094 6.097657 13.621094 13.621094zm0 0" fill="#f9cfcf" data-original="#F9CFCF"/><path d="m120.195312 121.386719c-.429687 0-.863281-.070313-1.28125-.210938-2.929687-.992187-5.9375-1.492187-8.949218-1.492187h-19.394532c-1.03125 0-2.152343.097656-3.4375.300781-1.148437.179687-2.332031-.148437-3.21875-.910156-.890624-.757813-1.402343-1.871094-1.402343-3.039063v-10.390625c-8.589844-8.027343-13.480469-19.230469-13.480469-31.023437v-25.808594c0-23.417969 19.054688-42.472656 42.472656-42.472656 23.421875 0 42.472656 19.054687 42.472656 42.472656v18.8125c4.480469.976562 7.847657 4.972656 7.847657 9.746094 0 5.453125-4.402344 9.902344-9.84375 9.972656-4.152344 13.179688-14.632813 23.671875-27.789063 27.804688v2.238281c0 1.289062-.621094 2.5-1.667968 3.25-.6875.492187-1.503907.75-2.328126.75zm-29.621093-9.703125h19.390625c2.085937 0 4.167968.1875 6.230468.554687v-.140625c0-1.863281 1.285157-3.476562 3.097657-3.898437 12.683593-2.929688 22.785156-13.039063 25.738281-25.761719.421875-1.808594 2.039062-3.09375 3.898438-3.09375h2.917968c1.089844 0 1.976563-.882812 1.976563-1.972656 0-1.085938-.886719-1.972656-1.976563-1.972656h-1.871094c-2.207031 0-4-1.792969-4-4v-22.585938c0-19.007812-15.464843-34.472656-34.472656-34.472656-19.007812 0-34.472656 15.464844-34.472656 34.472656v25.808594c0 10.078125 4.402344 19.625 12.082031 26.195312.886719.761719 1.398438 1.871094 1.398438 3.039063v7.828125zm0 0" fill="#3762cc" data-original="#3762CC" class=""/><path d="m66.132812 22.378906.003907.003906c6.863281-10.484374 19.128906-17.472656 33.121093-17.472656 2.976563 0 5.390626 2.285156 5.390626 5.097656v1.070313c0-1.257813.382812-2.429687 1.042968-3.40625 0 0 .183594-.378906.734375-.890625.722657-.730469 1.625-1.289062 2.644531-1.601562 1.425782-.570313 3.417969-1.042969 6.160157-1.160157v.003907h.015625c2.851562-.117188 6.511718.148437 11.207031 1.097656 3.417969.375 6.683594 1.246094 9.71875 2.539062.011719.003906.019531.007813.03125.011719v.003906c1.722656.738281 3.371094 1.617188 4.929687 2.613281.679688.414063 1.019532.675782 1.019532.675782 8.765625 6.042968 14.5 16.042968 14.5 27.371094v12.25c0 .570312-.46875 1.03125-1.046875 1.03125h-50.957031v36.578124l-6.148438 12.539063c-.171875.355469-.539062.582031-.941406.582031h-15.960938c-1.613281 0-3.199218-.230468-4.714844-.667968-.042968-.019532-1.664062-.699219-2.320312-1.753907-1.550781-2.480469-5.203125-8.328125-8.527344-13.671875-4.929687-7.925781-7.726562-16.984375-7.949218-26.273437-.605469-25.453125 8.046874-36.570313 8.046874-36.570313zm0 0" fill="#4671c6" data-original="#4671C6" class="active-path" data-old_color="#4671c6" style="fill:#4671C6"/><path d="m97.5625 105.316406h-15.960938c-1.964843 0-3.921874-.277344-5.820312-.820312-.148438-.042969-.289062-.09375-.433594-.152344-.667968-.277344-2.933594-1.339844-4.179687-3.332031-1.546875-2.476563-5.203125-8.332031-8.527344-13.675781-5.363281-8.621094-8.316406-18.402344-8.550781-28.289063-.609375-25.628906 7.863281-37.75 8.816406-39.027344 7.921875-11.96875 21.492188-19.109375 36.351562-19.109375 2.144532 0 4.125.703125 5.707032 1.878906.828125-.582031 1.773437-1.054687 2.769531-1.378906 2.042969-.792968 4.492187-1.257812 7.273437-1.378906.039063 0 .078126-.0039062.113282-.0039062 3.453125-.1367188 7.46875.2460942 11.953125 1.1406252 3.632812.414062 7.175781 1.339843 10.53125 2.757812.125.046875.25.101563.375.160157 1.816406.792968 3.605469 1.742187 5.308593 2.832031.640626.394531 1.050782.6875 1.199219.796875 10.125 7.011718 16.167969 18.457031 16.167969 30.625v12.25c0 2.773437-2.261719 5.027344-5.046875 5.027344h-46.960937v32.578124c0 .609376-.140626 1.210938-.410157 1.761719l-6.144531 12.539063c-.835938 1.710937-2.613281 2.820312-4.53125 2.820312zm-2.652344-6.34375s-.003906.003906-.003906.007813zm-16.632812-2.085937c1.085937.285156 2.203125.429687 3.320312.429687h14.125l4.925782-10.050781v-35.648437c0-2.210938 1.789062-4 4-4h48.003906v-9.28125c0-9.5625-4.777344-18.566407-12.773438-24.082032-.039062-.027344-.082031-.054687-.121094-.085937-.035156-.023438-.273437-.199219-.71875-.472657-1.457031-.929687-2.925781-1.707031-4.410156-2.34375-.03125-.011718-.054687-.023437-.085937-.035156-2.710938-1.152344-5.578125-1.898437-8.527344-2.21875-.117187-.015625-.238281-.03125-.355469-.054687-3.945312-.800781-7.390625-1.140625-10.25-1.027344-.0625.003906-.128906.003906-.199218.003906-2.273438.105469-3.804688.535157-4.65625.875-.109376.042969-.214844.082031-.328126.117188-.359374.109375-.691406.308593-.960937.585937 0 0-.109375.109375-.160156.160156-.03125.050782-.0625.097657-.097657.148438-.238281.355469-.363281.75-.363281 1.171875 0 2.210937-1.792969 4-4 4s-4-1.789063-4-4v-1.070313c0-.59375-.636719-1.097656-1.386719-1.097656-12.222656 0-23.351562 5.855469-29.777343 15.664063-.070313.109375-.148438.21875-.230469.320312-.71875 1.03125-7.699219 11.625-7.167969 33.960938.203125 8.460937 2.742188 16.847656 7.351563 24.257812 3.253906 5.234375 6.828125 10.953125 8.425781 13.511719.097656.078125.261719.179688.417969.261719zm30.992187-87.429688v.003907c0-.003907 0-.003907 0-.003907zm.003907-.007812v.003906zm.003906-.011719v.007812s0-.003906 0-.007812zm0 0" fill="#3762cc" data-original="#3762CC" class=""/><path d="m119.140625 72.515625c0 7.523437-6.097656 13.621094-13.621094 13.621094-7.519531 0-13.617187-6.097657-13.617187-13.621094s6.097656-13.621094 13.617187-13.621094c7.523438 0 13.621094 6.097657 13.621094 13.621094zm0 0" fill="#f9cfcf" data-original="#F9CFCF"/><path d="m347.0625 479.804688c-3.539062 2.476562-8.410156 1.617187-10.886719-1.917969l-198.847656-283.984375c-2.476563-3.535156-1.617187-8.410156 1.917969-10.886719s8.410156-1.617187 10.886718 1.917969l198.851563 283.988281c2.472656 3.535156 1.613281 8.40625-1.921875 10.882813zm0 0" fill="#e0ebfc" data-original="#E0EBFC" class=""/><path d="m107.941406 190.863281h-46.289062c-2.210938 0-4-1.792969-4-4v-35.730469c0-14.96875 12.175781-27.144531 27.140625-27.144531 14.96875 0 27.148437 12.175781 27.148437 27.144531v35.730469c0 2.207031-1.789062 4-4 4zm-42.289062-8h38.289062v-31.730469c0-10.554687-8.589844-19.144531-19.144531-19.144531s-19.144531 8.589844-19.144531 19.144531zm0 0" fill="#3762cc" data-original="#3762CC" class=""/><path d="m342.601562 485.222656c-.6875 0-1.382812-.058594-2.074218-.179687-3.109375-.550781-5.816406-2.277344-7.628906-4.859375l-198.851563-283.988282c-1.808594-2.582031-2.503906-5.71875-1.957031-8.828124.550781-3.113282 2.277344-5.820313 4.863281-7.628907 2.582031-1.8125 5.71875-2.507812 8.828125-1.957031 3.109375.546875 5.816406 2.273438 7.625 4.859375l198.851562 283.984375c1.808594 2.585938 2.503907 5.71875 1.957032 8.832031-.546875 3.109375-2.277344 5.816407-4.863282 7.625-2.007812 1.40625-4.347656 2.140625-6.75 2.140625zm-198.878906-299.621094c-.777344 0-1.535156.234376-2.183594.691407-.835937.582031-1.390624 1.457031-1.566406 2.460937-.179687 1.003906.042969 2.015625.628906 2.851563l198.851563 283.988281c.582031.832031 1.457031 1.390625 2.460937 1.570312 1 .175782 2.015626-.046874 2.851563-.632812.835937-.582031 1.394531-1.457031 1.570313-2.460938.175781-1.003906-.046876-2.015624-.632813-2.851562l-198.851563-283.992188c-.582031-.832031-1.457031-1.390624-2.457031-1.566406-.226562-.039062-.453125-.058594-.671875-.058594zm0 0" fill="#3762cc" data-original="#3762CC" class=""/><path d="m65.050781 186.863281v38.230469c0 2.34375.707031 4.632812 2.027344 6.570312l2.996094 4.394532c2.035156 2.988281 5.339843 4.859375 8.945312 5.074218l75.179688 4.441407c1.785156.105469 3.511719.652343 5.03125 1.589843l7.882812 4.871094c1.417969.875 3.054688 1.339844 4.722657 1.339844h18.121093c3.972657 0 7.191407-3.21875 7.191407-7.191406v-18.875c0-3.972656-3.21875-7.1875-7.191407-7.1875h-24.460937c-1.351563 0-2.683594.300781-3.902344.890625l-1.605469.773437c-1.996093.964844-4.246093 1.289063-6.4375.925782l-47.984375-7.898438c-1.835937-.304688-3.140625-1.957031-3.003906-3.8125l1.78125-24.136719zm0 0" fill="#f9cfcf" data-original="#F9CFCF"/><path d="m189.960938 257.378906h-18.121094c-2.414063 0-4.773438-.671875-6.824219-1.9375l-7.886719-4.871094c-.953125-.585937-2.046875-.933593-3.164062-1l-75.179688-4.445312c-4.808594-.285156-9.300781-2.828125-12.015625-6.8125l-2.996093-4.394531c-1.78125-2.613281-2.722657-5.664063-2.722657-8.824219v-38.230469c0-2.207031 1.792969-4 4-4h39.292969c1.113281 0 2.175781.460938 2.929688 1.277344.757812.816406 1.140624 1.910156 1.058593 3.015625l-1.753906 23.769531 47.625 7.839844c1.386719.234375 2.789063.027344 4.050781-.585937l1.601563-.773438c1.753906-.84375 3.703125-1.289062 5.640625-1.289062h24.460937c6.171875 0 11.195313 5.019531 11.195313 11.191406v18.875c0 6.171875-5.019532 11.195312-11.191406 11.195312zm-120.910157-66.515625v34.230469c0 1.546875.460938 3.039062 1.332031 4.316406l2.996094 4.398438c1.328125 1.945312 3.527344 3.191406 5.878906 3.332031l75.179688 4.445313c2.433594.144531 4.820312.898437 6.894531 2.179687l7.882813 4.871094c.789062.484375 1.695312.742187 2.625.742187h18.121094c1.761718 0 3.191406-1.429687 3.191406-3.191406v-18.875c0-1.757812-1.429688-3.191406-3.191406-3.191406h-24.464844c-.742188 0-1.492188.171875-2.164063.496094l-1.605469.773437c-2.753906 1.328125-5.804687 1.765625-8.824218 1.273437l-47.988282-7.902343c-3.90625-.640625-6.628906-4.105469-6.339843-8.050781l1.460937-19.84375h-30.984375zm0 0" fill="#3762cc" data-original="#3762CC" class=""/><path d="m441.945312 120.316406c0 63.515625-51.488281 115-115 115-63.511718 0-115-51.484375-115-115 0-63.511718 51.488282-115 115-115 63.511719 0 115 51.488282 115 115zm0 0" fill="#ffea92" data-original="#FFEA92" class="" style="fill:#FFEA92" data-old_color="#ffea92"/><path d="m417.945312 120.316406c0 50.257813-40.742187 91-91 91-50.257812 0-91-40.742187-91-91 0-50.257812 40.742188-91 91-91 50.257813 0 91 40.742188 91 91zm0 0" fill="#a4c9ff" data-original="#A4C9FF" class=""/><path d="m394.011719 96.640625v.003906c-4.59375-5.015625-9.898438-9.59375-15.902344-13.578125-15.09375-10.015625-32.371094-14.867187-49.503906-14.964844v.039063c-18.203125-.542969-36.742188 4.265625-52.804688 14.925781-6.003906 3.984375-11.304687 8.5625-15.898437 13.578125v-.003906s-10.144532 10.523437-17.667969 22.933594l20.726563 20.835937c1.25 1.300782 2.542968 2.550782 3.867187 3.761719.011719.011719.023437.023437.035156.035156l-.003906-.003906c16.835937 15.367187 39.1875 23.347656 61.746094 23.078125v-.023438c21.429687-.507812 42.4375-8.433593 58.449219-23.054687l-.003907.003906c.011719-.011719.023438-.023437.035157-.035156 1.324218-1.210937 2.613281-2.460937 3.867187-3.761719l20.726563-20.835937c-7.523438-12.410157-17.667969-22.933594-17.667969-22.933594zm0 0" fill="#e0ebfc" data-original="#E0EBFC" class=""/><path d="m375.617188 117.691406c0 26.246094-21.277344 47.523438-47.523438 47.523438s-47.523438-21.277344-47.523438-47.523438 21.277344-47.523437 47.523438-47.523437 47.523438 21.277343 47.523438 47.523437zm0 0" fill="#4671c6" data-original="#4671C6" class="active-path" data-old_color="#4671c6" style="fill:#4671C6"/><path d="m361.675781 102.128906c0 10.554688-8.554687 19.109375-19.109375 19.109375-10.554687 0-19.109375-8.554687-19.109375-19.109375 0-10.554687 8.554688-19.109375 19.109375-19.109375 10.554688 0 19.109375 8.554688 19.109375 19.109375zm0 0" fill="#e0ebfc" data-original="#E0EBFC" class=""/><path d="m326.945312 239.316406c-65.617187 0-119-53.382812-119-119 0-65.617187 53.382813-119 119-119 65.617188 0 119 53.382813 119 119 0 65.617188-53.382812 119-119 119zm0-230c-61.207031 0-111 49.796875-111 111 0 61.207032 49.792969 111 111 111 61.207032 0 111-49.792968 111-111 0-61.203125-49.792968-111-111-111zm0 0" fill="#3762cc" data-original="#3762CC" class=""/><path d="m381.644531 47.644531-127.375 127.367188c4.839844 6.414062 10.515625 12.15625 16.851563 17.09375l127.613281-127.613281c-4.9375-6.332032-10.679687-12.011719-17.089844-16.847657zm0 0" fill="#ffea92" data-original="#FFEA92" class="" style="fill:#FFEA92" data-old_color="#ffea92"/></g> </svg>
